<svg width="34.000000" height="34.000000" viewBox="0 0 34 34" fill="none" xmlns="http://www.w3.org/2000/svg" xmlns:xlink="http://www.w3.org/1999/xlink">
	<desc>
			Created with Pixso.
	</desc>
	<defs>
		<clipPath id="clip1895_479">
			<rect id="radix-icons:cross-2" rx="0.000000" width="30.373333" height="30.373333" transform="translate(1.813333 1.813333)" fill="white" fill-opacity="0"/>
		</clipPath>
	</defs>
	<rect id="radix-icons:cross-2" rx="0.000000" width="30.373333" height="30.373333" transform="translate(1.813333 1.813333)" fill="#FFFFFF" fill-opacity="0"/>
	<g clip-path="url(#clip1895_479)">
		<path id="Vector" d="M26.7 9.13C26.82 9.01 26.92 8.87 26.98 8.71C27.05 8.55 27.08 8.38 27.08 8.21C27.08 8.04 27.05 7.87 26.98 7.71C26.92 7.56 26.82 7.41 26.7 7.29C26.58 7.17 26.44 7.07 26.28 7.01C26.12 6.94 25.95 6.91 25.78 6.91C25.61 6.91 25.44 6.94 25.28 7.01C25.12 7.07 24.98 7.17 24.86 7.29L17 15.15L9.13 7.29C8.89 7.04 8.56 6.91 8.21 6.91C7.87 6.91 7.53 7.04 7.29 7.29C7.04 7.53 6.91 7.87 6.91 8.21C6.91 8.56 7.04 8.89 7.29 9.13L15.15 17L7.29 24.86C7.17 24.98 7.07 25.12 7.01 25.28C6.94 25.44 6.91 25.61 6.91 25.78C6.91 25.95 6.94 26.12 7.01 26.28C7.07 26.44 7.17 26.58 7.29 26.7C7.53 26.95 7.87 27.08 8.21 27.08C8.38 27.08 8.55 27.05 8.71 26.98C8.87 26.92 9.01 26.82 9.13 26.7L17 18.84L24.86 26.7C25.1 26.95 25.43 27.08 25.78 27.08C26.13 27.08 26.46 26.94 26.7 26.7C26.95 26.46 27.08 26.12 27.08 25.78C27.08 25.43 26.95 25.1 26.7 24.86L18.84 17L26.7 9.13Z" fill="#000000" fill-opacity="1.000000" fill-rule="evenodd"/>
	</g>
</svg>
